<svg xmlns="http://www.w3.org/2000/svg" width="329.26" height="243.67" viewBox="0 0 329.26 243.67">
  <defs>
    <style>
      .a {
        fill: #fff;
      }
    </style>
  </defs>
  <title>logo_white</title>
  <path class="a" d="M245.41,179.27h5.34q0,23.43-7.57,34.12t-19.13,10.67q-9.35,0-18-7t-15.42-37.82l-12.76-57.55L133.72,222h-28L169.17,85.23q-5-26.55-12.16-39.31T139.35,33.17a19.83,19.83,0,0,0-14.68,6.38q-6.23,6.38-7.12,20h-5.34q.45-21.81,8.75-34.86t20.77-13.2q8,0,15.13,6.53t12.46,22.54q5.34,16,16.46,66.16l10.53,47q6.38,29.22,13.35,39t16.91,9.94Q243.19,202.71,245.41,179.27Z"/>
  <path class="a" d="M0,122q7.9-2.51,12.06-5.67a17,17,0,0,0,5.87-8,53.67,53.67,0,0,0,2.9-18.46v-50q0-12.26,2.24-19.57A26.22,26.22,0,0,1,30.32,8.31a27.9,27.9,0,0,1,11.8-6.46Q48.92,0,60.64,0V3.3q-6.86-.41-11.27,3.36a23,23,0,0,0-6.66,10.28q-2.24,6.52-2.24,18.52V85.3a68.57,68.57,0,0,1-1.64,16.54,28,28,0,0,1-4.42,10A24.84,24.84,0,0,1,27.55,118a48.14,48.14,0,0,1-9.49,4q8.84,2.76,13.38,6.72a21.51,21.51,0,0,1,6.4,9.36q2.63,7,2.63,21v48.92q0,12.51,2.77,19.44t7.65,10.22a19.74,19.74,0,0,0,9.89,2.24V243a85.32,85.32,0,0,1-17-1.31,29.75,29.75,0,0,1-13.05-6.2,25.83,25.83,0,0,1-7.45-12.13q-2.44-7.79-2.44-22.81V155q0-11.86-1.85-17.54a19.89,19.89,0,0,0-5.93-9.16Q9,124.85,0,122Z"/>
  <path class="a" d="M329.26,121.73c-5.28,1.66-9.3,3.56-12.07,5.66a16.94,16.94,0,0,0-5.86,8,53.33,53.33,0,0,0-2.9,18.45v50q0,12.25-2.25,19.58a26.24,26.24,0,0,1-7.25,11.93,28,28,0,0,1-11.8,6.46q-6.78,1.84-18.52,1.84v-3.29q6.86.39,11.27-3.36a22.87,22.87,0,0,0,6.66-10.29q2.25-6.53,2.24-18.52V158.38a68.09,68.09,0,0,1,1.65-16.55,28,28,0,0,1,4.42-10,24.79,24.79,0,0,1,6.85-6.13,47.89,47.89,0,0,1,9.49-4Q302.37,119,297.81,115a21.43,21.43,0,0,1-6.39-9.36q-2.64-7-2.64-21V35.77q0-12.53-2.77-19.45T278.37,6.11a19.77,19.77,0,0,0-9.89-2.25V.7a84.44,84.44,0,0,1,17,1.32,29.64,29.64,0,0,1,13.05,6.19A26,26,0,0,1,306,20.34q2.43,7.79,2.44,22.81V88.63q0,11.87,1.84,17.54a19.84,19.84,0,0,0,5.93,9.16Q320.3,118.82,329.26,121.73Z"/>
</svg>
